<svg version="1.1" xmlns="http://www.w3.org/2000/svg" viewBox="0 0 595 594" xml:space="preserve">
<style>
    .white{fill:#FFFFFF;}
    .lightGray{fill:#DFDFDF;}
    .red{fill:#FF1C1C;}
    .darkRed{fill:#DF1818;}
</style>
<g>
    <path class="white" d="M298,381c-40,0-74-29-82-67H81c10,111,102,197,215,197s206-87,215-197H380C372,352,338,381,298,381z"/>
    <path class="lightGray" d="M346,506c90-21,158-98,166-192h-53C454,400,409,472,346,506z"/>
    <path class="white" d="M347,297c0-6-1-12-3-17-7-19-25-32-46-32s-39,13-46,32c-2,5-3,11-3,17s1,12,3,17c7,19,25,32,46,32s39-13,46-32C346,309,347,303,347,297z"/>
    <path class="red" d="M298,213c40,0,74,29,82,67h134C505,169,412,83,299,83S94,169,84,280h132C224,242,258,213,298,213z"/>
    <path class="darkRed" d="M458,280h56c-8-96-79-173-171-193C407,121,453,194,458,280z"/>
    <path d="M299,83c113,0,206,87,215,197H380c-8-38-42-67-82-67s-74,29-82,67H84C93,169,186,83,299,83zM344,280c2,5,3,11,3,17s-1,12-3,17c-7,19-25,32-46,32s-39-13-46-32c-2-5-3-11-3-17s1-12,3-17c7-19,25-32,46-32S337,261,344,280zM296,512c-113,0-206-87-215-197h134c8,38,42,67,82,67s74-29,82-67h132C502,425,409,512,296,512zM298,41C157,41,42,156,42,297s115,256,256,256S554,438,554,297S439,41,298,41z"/>
</g>
</svg>
